<svg xmlns="http://www.w3.org/2000/svg" width="200" height="50" viewBox="0 0 200 50">
    <g fill="none" fill-rule="evenodd">
        <g>
            <g>
                <g>
                    <path fill="#F28D00" d="M39.353 19.6c-.304 0-.553.239-.553.533v4.532c0 .294.25.535.553.535h4.495c.304 0 .552-.241.552-.535v-4.532c0-.294-.248-.533-.552-.533h-4.495zm0 11.6c-.304 0-.553.24-.553.532v4.535c0 .293.25.533.553.533h4.495c.304 0 .552-.24.552-.533v-4.535c0-.292-.248-.532-.552-.532h-4.495zm-3.213 3.014c.211.174.21.461-.004.635 0 0-2.85 4.351-9.362 4.351C21.283 39.2 16 35.755 16 28.116 16 21.143 20.528 17.2 26.439 17.2c5.533 0 7.839 3.279 8.259 3.902 2.156 3.018 2.1 7.595 2.1 7.595.021.276-.189.498-.466.498H21.827c-.276 0-.387.17-.359.445 0 0 .61 4.704 5.81 4.704 3.605 0 5.162-2.456 5.162-2.456.164-.235.492-.298.658-.165l3.042 2.49zM26.574 21.2c-4.39 0-4.952 3.959-4.952 3.959-.08.292.066.441.343.441h8.797c.277 0 .493-.122.425-.438 0 0-.402-3.962-4.613-3.962zM6.563 17.653c.277 0 .51.196.602.488 0 0 .614 1.496.748 1.807.13.31.46.119.566-.04.46-.694 2.017-2.55 5.538-2.707.25-.012.783.07.783.554V21.8c0 .275-.226.505-.503.514 0 0-2.48.066-4.035 1.23-2.144 1.618-2.185 3.734-2.185 7.18v7.178c0 .273-.227.498-.506.498H3.705c-.277 0-.505-.225-.505-.498V18.15c0-.275.228-.497.505-.497h2.858z" transform="translate(-182 -59) translate(161 1) translate(21 58)"/>
                    <path fill="#000" d="M196.35 38.8c.028 0 .05-.022.05-.048v-2.704c0-.029-.022-.048-.05-.048h-.717c-.03 0-.056.025-.064.048l-.543 1.942c-.01.04-.031.044-.044.004l-.548-1.946c-.012-.023-.035-.048-.065-.048h-.718c-.028 0-.051.02-.051.048v2.704c0 .026.023.048.05.048h.45c.03 0 .045-.022.045-.048l-.048-2.157c0-.024.015-.028.023-.004l.616 2.161c.005.023.034.048.062.048h.407c.027 0 .055-.025.062-.048l.61-2.157c.004-.02.02-.035.02 0l-.046 2.157c0 .026.022.048.051.048h.448zm-3.596-2.323c.029 0 .046-.02.046-.047v-.381c0-.029-.017-.049-.046-.049h-1.907c-.03 0-.047.02-.047.049v.381c0 .027.018.047.047.047h.644c.027 0 .047.02.047.046v2.23c0 .025.02.047.047.047h.418c.026 0 .046-.022.046-.048v-2.229c0-.026.019-.046.046-.046h.659zm-14.456-4.754c-.165-.133-.494-.07-.658.165 0 0-1.559 2.455-5.164 2.455-5.199 0-5.81-4.703-5.81-4.703-.028-.275.083-.445.36-.445h14.507c.276 0 .487-.222.466-.498 0 0 .054-4.577-2.1-7.595-.42-.623-2.726-3.902-8.261-3.902-5.911 0-10.438 3.943-10.438 10.916 0 7.64 5.281 11.084 10.773 11.084 6.512 0 9.362-4.351 9.362-4.351.216-.174.217-.461.006-.635l-3.043-2.491zM171.775 21.2c4.21 0 4.612 3.962 4.612 3.962.069.316-.147.438-.422.438h-8.8c-.275 0-.423-.15-.344-.441 0 0 .564-3.959 4.954-3.959zM98.298 31.723c-.166-.133-.494-.07-.658.165 0 0-1.558 2.455-5.163 2.455-5.2 0-5.809-4.703-5.809-4.703-.029-.275.083-.445.36-.445h14.505c.276 0 .487-.222.466-.498 0 0 .056-4.577-2.102-7.595-.42-.623-2.725-3.902-8.258-3.902-5.91 0-10.439 3.943-10.439 10.916 0 7.64 5.283 11.084 10.774 11.084 6.511 0 9.362-4.351 9.362-4.351.214-.174.215-.461.003-.635l-3.041-2.491zM91.773 21.2c4.212 0 4.614 3.962 4.614 3.962.07.316-.148.438-.424.438h-8.798c-.277 0-.424-.15-.343-.441 0 0 .562-3.959 4.95-3.959zM104.4 37.906c0 .272.223.494.499.494h3.97c.274 0 .5-.222.5-.494v-8.11c0-2.017.04-3.951.919-5.556.877-1.525 2.34-2.388 3.843-2.388 1.754 0 2.839 1.069 3.216 2.426.168.617.168 2.143.168 2.143v11.485c0 .272.224.494.5.494h3.967c.278 0 .502-.222.502-.494v-9.18c0-1.772.126-3.416 1.086-4.94.67-1.071 1.963-1.934 3.55-1.934 3.802 0 3.537 3.325 3.537 4.693l-.03 11.361c0 .272.23.494.503.494h3.967c.278 0 .503-.222.503-.494V25.433c0-2.142.043-4.323-1.631-6.134-1.42-1.525-3.423-2.099-5.512-2.099-3.048 0-5.063 1.386-6.136 2.518-.481.505-.576.525-.994-.033-1.423-1.886-3.593-2.485-5.358-2.485-4.055 0-6.177 2.656-6.177 2.656-.198.198-.429.008-.545-.213l-.76-1.347c-.196-.362-.346-.478-.624-.478h-2.964c-.276 0-.499.221-.499.493v19.595zm-57.2 0c0 .272.225.494.501.494h3.968c.275 0 .501-.222.501-.494v-8.11c0-2.017.042-3.951.92-5.556.877-1.525 2.338-2.388 3.843-2.388 1.753 0 2.839 1.069 3.214 2.426.168.617.168 2.143.168 2.143v11.485c0 .272.226.494.501.494h3.969c.276 0 .5-.222.5-.494v-9.18c0-1.772.126-3.416 1.087-4.94.668-1.071 1.963-1.934 3.55-1.934 3.8 0 3.536 3.325 3.536 4.693l-.028 11.361c0 .272.225.494.502.494H77.9c.275 0 .5-.222.5-.494V25.433c0-2.142.042-4.323-1.629-6.134-1.419-1.525-3.425-2.099-5.513-2.099-3.048 0-5.06 1.386-6.137 2.518-.48.505-.575.525-.992-.033-1.423-1.886-3.594-2.485-5.36-2.485-4.052 0-6.176 2.656-6.176 2.656-.199.198-.429.008-.544-.213l-.76-1.347c-.196-.362-.347-.478-.622-.478h-2.966c-.276 0-.501.221-.501.493v19.595zm138.103-20.252c-.278 0-.503.22-.503.496v19.752c0 .273.225.498.503.498h3.866c.278 0 .505-.225.505-.498v-7.179c0-3.445.042-5.56 2.185-7.178 1.555-1.165 4.035-1.231 4.035-1.231.277-.009.506-.239.506-.514v-4.045c0-.484-.535-.565-.785-.554-3.522.157-5.075 2.013-5.538 2.706-.108.16-.437.351-.567.041-.133-.31-.747-1.807-.747-1.807-.094-.292-.326-.487-.602-.487h-2.858zM143.32 9.2c.278 0 .507.224.507.5v9.32c0 .274.194.378.43.233 0 0 2.103-2.106 5.693-2.106 4.773 0 9.25 4.327 9.25 10.942 0 6.783-4.562 11.111-9.588 11.111-2.437 0-4.198-1.18-5.334-2.309-.165-.162-.474-.412-.682.009l-.65 1.195c-.143.314-.299.481-.725.481h-2.911c-.28 0-.51-.224-.51-.5V9.699c0-.275.23-.499.51-.499h4.01zm5.553 12.4c-2.232 0-4.873 1.708-4.873 6.17 0 1.293.165 2.168.33 2.668.99 3.962 4.339 3.962 4.75 3.962 3.634 0 4.833-3.711 4.916-6.464.124-4.128-2.438-6.336-5.123-6.336z" transform="translate(-182 -59) translate(161 1) translate(21 58)"/>
                </g>
            </g>
        </g>
    </g>
</svg>
